<?xml version="1.0" encoding="utf-8"?>
<!-- Generator: Adobe Illustrator 16.0.4, SVG Export Plug-In . SVG Version: 6.00 Build 0)  -->
<!DOCTYPE svg PUBLIC "-//W3C//DTD SVG 1.1//EN" "http://www.w3.org/Graphics/SVG/1.1/DTD/svg11.dtd">
<svg version="1.1" id="Layer_3" xmlns="http://www.w3.org/2000/svg" xmlns:xlink="http://www.w3.org/1999/xlink" x="0px" y="0px"
	 width="1404.777px" height="43.136px" viewBox="0 0 1404.777 43.136" enable-background="new 0 0 1404.777 43.136"
	 xml:space="preserve">
<g>
	<g>
		<path fill="#62C2E8" d="M1.583,27.974C31.59,27.974,58.777,17.088,78.777,0v0.098c21,17.087,47.993,27.602,78,27.602
			s58-10.564,78-27.651v0.049c21,17.087,47.993,27.602,78,27.602s57-10.564,78-27.651v0.049c22,17.087,47.993,27.602,78,27.602
			c30.006,0,57-10.564,78-27.651v0.049c21,17.087,47.993,27.602,78,27.602c30.008,0,57-10.564,78-27.651v0.049
			c21,17.087,47.994,27.602,78,27.602c30.009,0,57-10.564,78-27.651v0.049c21,17.087,47.994,27.602,78,27.602
			c30.01,0,57-10.564,78-27.651v0.049c21,17.087,47.994,27.602,78.001,27.602s57.999-10.564,77.999-27.651v0.049
			c21,17.087,47.992,27.602,78.001,27.602c30.008,0,56.999-10.564,77.999-27.651v0.049c20,17.087,47,27.404,78,27.404v15.634H0
			L1.583,27.974z"/>
	</g>
</g>
</svg>
